#!OML:ASF G:\JayActor3\Patient Classification 1\Patient 1\Session 6\male.ASF
:FULLY-SPECIFIED
:DEGREES
1053
root 8.46681 15.2387 -2.96352 11.0567 -48.4222 -6.02739
lowerback 30.1741 -1.37339 2.21588
upperback 5.09959 -1.3473 -0.307723
thorax -10.9221 -0.808508 -1.09833
lowerneck -7.12195 1.13094 3.10482
upperneck 23.9025 2.30744 -6.84636
head 8.71051 0.559611 -2.65078
rclavicle 8.74653e-015 -1.27222e-014
rhumerus -21.7223 8.47148 -80.7532
rradius 138.07
rwrist 20.1453
rhand 18.9273 -19.9293
rfingers 7.12502
rthumb 43.5345 -43.9837
lclavicle 8.74653e-015 -1.27222e-014
lhumerus -33.6497 9.39854 75.0775
lradius 132.102
lwrist 3.45041
lhand -0.338946 36.5599
lfingers 7.12502
lthumb 25.2657 64.9069
rfemur -37.8298 -17.8079 20.3949
rtibia 61.7184
rfoot -26.7636 -11.2679
rtoes -6.74676
lfemur -42.2471 30.1742 -16.0738
ltibia 56.9809
lfoot -17.9146 -2.9995
ltoes -5.0228
1054
root 8.47657 15.2246 -2.97356 11.2575 -48.2219 -5.95981
lowerback 30.3692 -1.3917 2.31976
upperback 5.1062 -1.33356 -0.307315
thorax -11.0128 -0.806572 -1.1607
lowerneck -7.182 1.12727 3.08677
upperneck 23.9264 2.31409 -6.87563
head 8.73049 0.557851 -2.65744
rclavicle 2.8625e-014 1.27222e-014
rhumerus -21.6117 8.35804 -80.7744
rradius 138.123
rwrist 20.1881
rhand 18.9584 -19.9492
rfingers 7.12502
rthumb 43.5636 -43.993
lclavicle 2.8625e-014 1.27222e-014
lhumerus -33.6062 9.52182 75.0087
lradius 132.167
lwrist 3.4753
lhand -0.305839 36.5558
lfingers 7.12502
lthumb 25.2974 64.8983
rfemur -38.3358 -17.986 20.4743
rtibia 62.0175
rfoot -26.8068 -11.2827
rtoes -6.78314
lfemur -42.8584 30.0797 -16.3353
ltibia 57.2294
lfoot -17.9096 -3.05837
ltoes -4.98175
1055
root 8.48664 15.2106 -2.98364 11.4488 -48.0259 -5.88372
lowerback 30.6152 -1.41942 2.44553
upperback 5.08496 -1.32493 -0.330293
thorax -11.1622 -0.808703 -1.25974
lowerneck -7.22588 1.12556 3.08171
upperneck 23.977 2.31615 -6.87937
head 8.75627 0.557174 -2.65862
rclavicle 1.59028e-014 -1.82882e-014
rhumerus -21.5504 8.24914 -80.8335
rradius 138.166
rwrist 20.2372
rhand 18.9839 -19.9651
rfingers 7.12502
rthumb 43.5874 -44.0001
lclavicle 1.59028e-014 -1.82882e-014
lhumerus -33.6046 9.61803 74.9003
lradius 132.23
lwrist 3.50882
lhand -0.228933 36.5453
lfingers 7.12502
lthumb 25.3711 64.8774
rfemur -38.8409 -18.1684 20.5471
rtibia 62.3154
rfoot -26.8437 -11.2924
rtoes -6.82357
lfemur -43.4587 29.9698 -16.5983
ltibia 57.4723
lfoot -17.9058 -3.10235
ltoes -4.95158
1056
root 8.49696 15.1966 -2.99371 11.6387 -47.8355 -5.81155
lowerback 31.0981 -1.46699 2.61302
upperback 4.60333 -1.31976 -0.434741
thorax -11.1377 -0.806116 -1.35969
lowerneck -7.25011 1.12551 3.0971
upperneck 24.0651 2.31257 -6.85948
head 8.79088 0.557369 -2.65659
rclavicle 4.69132e-014 -2.34566e-014
rhumerus -21.5565 8.14243 -80.9395
rradius 138.201
rwrist 20.2904
rhand 18.9927 -19.9785
rfingers 7.12502
rthumb 43.5956 -44.0106
lclavicle 4.69132e-014 -2.34566e-014
lhumerus -33.6637 9.67932 74.7432
lradius 132.293
lwrist 3.54208
lhand -0.113466 36.5043
lfingers 7.12502
lthumb 25.4817 64.8206
rfemur -39.3428 -18.3502 20.6219
rtibia 62.6115
rfoot -26.8777 -11.2971
rtoes -6.86445
lfemur -44.0489 29.8551 -16.8541
ltibia 57.7114
lfoot -17.9001 -3.139
ltoes -4.93347
1057
root 8.5075 15.1826 -3.00355 11.8129 -47.6523 -5.72336
lowerback 31.4759 -1.52126 2.80172
upperback 4.49006 -1.32335 -0.525311
thorax -11.428 -0.817659 -1.54938
lowerneck -7.25823 1.12535 3.13113
upperneck 24.1908 2.2998 -6.81011
head 8.83485 0.557234 -2.64936
rclavicle 0 -5.56597e-015
rhumerus -21.6307 8.02622 -81.0976
rradius 138.23
rwrist 20.3475
rhand 18.9964 -19.9967
rfingers 7.12502
rthumb 43.599 -44.0275
lclavicle 0 -5.56597e-015
lhumerus -33.7792 9.70038 74.5325
lradius 132.356
lwrist 3.57136
lhand 0.0324481 36.4435
lfingers 7.12502
lthumb 25.6215 64.7398
rfemur -39.8433 -18.5377 20.6833
rtibia 62.9071
rfoot -26.9075 -11.2907
rtoes -6.8902
lfemur -44.6285 29.7338 -17.1186
ltibia 57.9456
lfoot -17.893 -3.16923
ltoes -4.92113
1058
root 8.51815 15.1686 -3.01329 11.9835 -47.4751 -5.62876
lowerback 31.7371 -1.53851 2.90638
upperback 4.46203 -1.30492 -0.548876
thorax -11.5692 -0.814705 -1.63334
lowerneck -7.29205 1.1172 3.11177
upperneck 24.2515 2.29104 -6.79508
head 8.86138 0.552072 -2.64287
rclavicle -5.1684e-014 2.82274e-014
rhumerus -21.5541 7.92301 -81.133
rradius 138.232
rwrist 20.3704
rhand 19.0026 -20.0229
rfingers 7.12502
rthumb 43.6049 -44.0516
lclavicle -5.1684e-014 2.82274e-014
lhumerus -33.7837 9.77847 74.4553
lradius 132.399
lwrist 3.5503
lhand 0.158835 36.3708
lfingers 7.12502
lthumb 25.7425 64.6496
rfemur -40.3472 -18.7266 20.7414
rtibia 63.2012
rfoot -26.9315 -11.2838
rtoes -6.92395
lfemur -45.2046 29.6069 -17.3855
ltibia 58.1766
lfoot -17.8827 -3.1998
ltoes -4.88715
